<?xml version="1.0" encoding="UTF-8" standalone="no"?>
<!DOCTYPE svg PUBLIC "-//W3C//DTD SVG 1.1//EN"
 "http://www.w3.org/Graphics/SVG/1.1/DTD/svg11.dtd">
<!-- Generated by graphviz version 12.1.1 (20240910.0053)
 -->
<!-- Title: INFRA Pages: 1 -->
<svg width="818pt" height="188pt"
 viewBox="0.00 0.00 817.83 188.00" xmlns="http://www.w3.org/2000/svg" xmlns:xlink="http://www.w3.org/1999/xlink">
<g id="graph0" class="graph" transform="scale(1 1) rotate(0) translate(4 184)">
<title>INFRA</title>
<polygon fill="white" stroke="none" points="-4,4 -4,-184 813.83,-184 813.83,4 -4,4"/>
<!-- pet&#45;adoption&#45;api -->
<g id="node1" class="node">
<title>pet&#45;adoption&#45;api</title>
<path fill="#b7e0ff" stroke="black" stroke-width="2" d="M178.26,-72C178.26,-72 12,-72 12,-72 6,-72 0,-66 0,-60 0,-60 0,-12 0,-12 0,-6 6,0 12,0 12,0 178.26,0 178.26,0 184.26,0 190.26,-6 190.26,-12 190.26,-12 190.26,-60 190.26,-60 190.26,-66 184.26,-72 178.26,-72"/>
<text text-anchor="middle" x="95.13" y="-40.2" font-family="Arial" font-size="14.00">pet&#45;adoption&#45;api</text>
<text text-anchor="middle" x="95.13" y="-23.4" font-family="Arial" font-size="14.00">(AWS::ECS::TaskDefinition)</text>
</g>
<!-- pet&#45;adoption&#45;service -->
<g id="node2" class="node">
<title>pet&#45;adoption&#45;service</title>
<path fill="#b7e0ff" stroke="black" stroke-width="2" d="M250.25,-180C250.25,-180 126.01,-180 126.01,-180 120.01,-180 114.01,-174 114.01,-168 114.01,-168 114.01,-120 114.01,-120 114.01,-114 120.01,-108 126.01,-108 126.01,-108 250.25,-108 250.25,-108 256.25,-108 262.25,-114 262.25,-120 262.25,-120 262.25,-168 262.25,-168 262.25,-174 256.25,-180 250.25,-180"/>
<text text-anchor="middle" x="188.13" y="-148.2" font-family="Arial" font-size="14.00">pet&#45;adoption&#45;service</text>
<text text-anchor="middle" x="188.13" y="-131.4" font-family="Arial" font-size="14.00">(AWS::ECS::Service)</text>
</g>
<!-- pet&#45;adoption&#45;service&#45;&gt;pet&#45;adoption&#45;api -->
<g id="edge1" class="edge">
<title>pet&#45;adoption&#45;service&#45;&gt;pet&#45;adoption&#45;api</title>
<path fill="none" stroke="black" d="M157.16,-107.7C149.56,-99.03 141.32,-89.65 133.41,-80.63"/>
<polygon fill="black" stroke="black" points="136.19,-78.49 126.96,-73.28 130.93,-83.11 136.19,-78.49"/>
</g>
<!-- pet&#45;adoption&#45;cluster -->
<g id="node3" class="node">
<title>pet&#45;adoption&#45;cluster</title>
<path fill="#b7e0ff" stroke="black" stroke-width="2" d="M342.08,-72C342.08,-72 220.18,-72 220.18,-72 214.18,-72 208.18,-66 208.18,-60 208.18,-60 208.18,-12 208.18,-12 208.18,-6 214.18,0 220.18,0 220.18,0 342.08,0 342.08,0 348.08,0 354.08,-6 354.08,-12 354.08,-12 354.08,-60 354.08,-60 354.08,-66 348.08,-72 342.08,-72"/>
<text text-anchor="middle" x="281.13" y="-40.2" font-family="Arial" font-size="14.00">pet&#45;adoption&#45;cluster</text>
<text text-anchor="middle" x="281.13" y="-23.4" font-family="Arial" font-size="14.00">(AWS::ECS::Cluster)</text>
</g>
<!-- pet&#45;adoption&#45;service&#45;&gt;pet&#45;adoption&#45;cluster -->
<g id="edge2" class="edge">
<title>pet&#45;adoption&#45;service&#45;&gt;pet&#45;adoption&#45;cluster</title>
<path fill="none" stroke="black" d="M219.1,-107.7C226.71,-99.03 234.94,-89.65 242.85,-80.63"/>
<polygon fill="black" stroke="black" points="245.34,-83.11 249.3,-73.28 240.07,-78.49 245.34,-83.11"/>
</g>
<!-- pet_backend -->
<g id="node4" class="node">
<title>pet_backend</title>
<path fill="#fff5cd" stroke="black" stroke-width="2" d="M449.75,-173.45C449.75,-177.07 411.83,-180 365.13,-180 318.44,-180 280.51,-177.07 280.51,-173.45 280.51,-173.45 280.51,-114.55 280.51,-114.55 280.51,-110.93 318.44,-108 365.13,-108 411.83,-108 449.75,-110.93 449.75,-114.55 449.75,-114.55 449.75,-173.45 449.75,-173.45"/>
<path fill="none" stroke="black" stroke-width="2" d="M449.75,-173.45C449.75,-169.84 411.83,-166.91 365.13,-166.91 318.44,-166.91 280.51,-169.84 280.51,-173.45"/>
<text text-anchor="middle" x="365.13" y="-148.2" font-family="Arial" font-size="14.00">pet_backend</text>
<text text-anchor="middle" x="365.13" y="-131.4" font-family="Arial" font-size="14.00">(AWS::ECR::Repository)</text>
</g>
<!-- ecsTaskExecutionRole -->
<g id="node5" class="node">
<title>ecsTaskExecutionRole</title>
<path fill="#e6e6e6" stroke="black" stroke-width="2" d="M614.33,-180C614.33,-180 479.93,-180 479.93,-180 473.93,-180 467.93,-174 467.93,-168 467.93,-168 467.93,-120 467.93,-120 467.93,-114 473.93,-108 479.93,-108 479.93,-108 614.33,-108 614.33,-108 620.33,-108 626.33,-114 626.33,-120 626.33,-120 626.33,-168 626.33,-168 626.33,-174 620.33,-180 614.33,-180"/>
<text text-anchor="middle" x="547.13" y="-148.2" font-family="Arial" font-size="14.00">ecsTaskExecutionRole</text>
<text text-anchor="middle" x="547.13" y="-131.4" font-family="Arial" font-size="14.00">(AWS::IAM::Role)</text>
</g>
<!-- task&#45;definition&#45;logs -->
<g id="node6" class="node">
<title>task&#45;definition&#45;logs</title>
<path fill="#e6e6e6" stroke="black" stroke-width="2" d="M797.83,-180C797.83,-180 656.43,-180 656.43,-180 650.43,-180 644.43,-174 644.43,-168 644.43,-168 644.43,-120 644.43,-120 644.43,-114 650.43,-108 656.43,-108 656.43,-108 797.83,-108 797.83,-108 803.83,-108 809.83,-114 809.83,-120 809.83,-120 809.83,-168 809.83,-168 809.83,-174 803.83,-180 797.83,-180"/>
<text text-anchor="middle" x="727.13" y="-148.2" font-family="Arial" font-size="14.00">task&#45;definition&#45;logs</text>
<text text-anchor="middle" x="727.13" y="-131.4" font-family="Arial" font-size="14.00">(AWS::Logs::LogGroup)</text>
</g>
</g>
</svg>
